<svg width="424" height="269" viewBox="0 0 424 269" fill="none" xmlns="http://www.w3.org/2000/svg">
<path d="M423.784 159.229C423.784 97.8675 374.042 48.1249 312.68 48.1249C310.417 48.1249 308.167 48.1993 305.935 48.3357C281.525 19.1213 244.828 0.533691 203.784 0.533691C141.102 0.533691 88.5504 43.8841 74.4516 102.238C37.388 112.586 10.1948 146.593 10.1948 186.955C10.1948 211.129 19.9474 233.027 35.7388 248.924H378.245C405.854 228.712 423.784 196.069 423.784 159.229Z" fill="#8ECFD5"/>
<path d="M418.452 258.795C418.452 257.71 417.572 256.829 416.487 256.829H402.835C401.75 256.829 400.869 255.949 400.869 254.864C400.869 253.779 399.989 252.898 398.904 252.898H395.264C394.179 252.898 393.299 252.018 393.299 250.933C393.299 249.848 392.419 248.968 391.334 248.968H27.6602C26.5752 248.968 25.6948 249.848 25.6948 250.933C25.6948 252.018 24.8144 252.898 23.7294 252.898H20.09C19.005 252.898 18.1246 253.779 18.1246 254.864C18.1246 255.949 17.2442 256.829 16.1592 256.829H2.51301C1.42801 256.829 0.547607 257.71 0.547607 258.795C0.547607 259.88 1.42801 260.76 2.51301 260.76H126.532C127.617 260.76 128.497 261.64 128.497 262.725C128.497 263.81 127.617 264.691 126.532 264.691H57.383C56.298 264.691 55.4176 265.571 55.4176 266.656C55.4176 267.741 56.298 268.622 57.383 268.622H395.624C396.709 268.622 397.589 267.741 397.589 266.656C397.589 265.571 396.709 264.691 395.624 264.691H328.974C327.889 264.691 327.009 263.81 327.009 262.725C327.009 261.64 327.889 260.76 328.974 260.76H416.493C417.572 260.76 418.452 259.88 418.452 258.795Z" fill="#9EE6E0"/>
<path d="M44.4126 268.615H28.5034C27.4184 268.615 26.538 267.735 26.538 266.65C26.538 265.565 27.4184 264.685 28.5034 264.685H44.4188C45.5038 264.685 46.3842 265.565 46.3842 266.65C46.378 267.735 45.4976 268.615 44.4126 268.615Z" fill="#9EE6E0"/>
<path d="M251.604 194.277H248.554L247.742 201.587L250.984 199.839L251.604 194.277Z" fill="#422C4F"/>
<path d="M247.742 201.587L242.565 248.012H245.609L250.984 199.838L247.742 201.587Z" fill="#99A3B0"/>
<path d="M274.34 200.775L269.07 248.013H272.12L277.582 199.026L274.34 200.775Z" fill="#99A3B0"/>
<path d="M278.109 194.277H275.065L274.34 200.775L277.582 199.026L278.109 194.277Z" fill="#422C4F"/>
<path d="M289.579 194.277H286.535L287.279 200.948L290.15 199.392L289.579 194.277Z" fill="#422C4F"/>
<path d="M295.575 248.012L290.15 199.392L287.279 200.948L292.524 248.012H295.575Z" fill="#99A3B0"/>
<path d="M316.09 194.277H313.04L313.734 200.502L316.611 198.946L316.09 194.277Z" fill="#422C4F"/>
<path d="M322.08 248.013L316.611 198.946L313.734 200.502L319.035 248.013H322.08Z" fill="#99A3B0"/>
<path d="M246.359 194.277C249.13 188.282 255.126 184.444 261.729 184.444H281.904L292.809 113.442L308.136 101.048H317.845C330.003 101.048 339.303 111.885 337.456 123.901L328.261 183.762C327.331 189.813 322.123 194.277 316.004 194.277H246.359Z" fill="#797C99"/>
<path d="M236.656 194.277C239.427 188.282 245.423 184.444 252.026 184.444H272.201L281.501 123.907C283.522 110.757 294.837 101.048 308.142 101.048C320.3 101.048 329.6 111.885 327.753 123.901L319.581 177.085C318.93 181.319 315.284 184.444 311 184.444H298.272C291.669 184.444 285.667 188.282 282.902 194.277H236.656Z" fill="#495375"/>
<path d="M265.629 101.097C268.592 102.554 272.25 102.523 275.183 101.01C277.458 99.8387 279.256 97.7989 280.199 95.4243H277.799C276.429 95.4243 275.319 94.3145 275.319 92.9443V84.6797L264.624 87.4697V93.4651C264.624 94.8353 263.514 95.9451 262.144 95.9451H260.65C261.673 98.1523 263.44 100.025 265.629 101.097Z" fill="#EBA58E"/>
<path d="M275.325 84.6797C273.515 91.1401 269.795 93.8247 264.63 92.0143V87.4697L275.325 84.6797Z" fill="#422C4F"/>
<path d="M254.71 75.3798C250.525 72.2302 251.92 65.7698 252.54 64.8398C251.034 63.9346 249.564 62.707 248.678 61.188C247.791 59.669 247.456 57.778 248.045 56.1226C248.634 54.4672 250.259 53.159 252.013 53.19C254.066 53.2272 255.684 54.9012 257.624 55.5708C259.584 56.2528 261.735 55.8684 263.744 55.3476C265.746 54.8268 267.774 54.1696 269.838 54.3246C271.593 54.4548 273.292 55.1864 274.588 56.3768C275.883 57.561 276.77 59.1916 277.055 60.9276C278.729 60.1278 281.06 60.7602 282.09 62.304C283.075 63.792 282.933 65.7326 282.697 67.5058C282.269 70.7112 280.533 78.4426 279.771 81.586L273.986 83.0306L254.71 75.3798Z" fill="#422C4F"/>
<path d="M278.029 77.0349C278.58 76.1545 279.399 75.4043 280.397 75.1191C281.395 74.8339 282.573 75.0819 283.249 75.8755C283.813 76.5389 283.956 77.4813 283.801 78.3369C283.646 79.1925 283.218 79.9737 282.747 80.6991C282.319 81.3625 281.842 82.0011 281.228 82.5033C280.62 83.0055 279.87 83.3651 279.083 83.3961C278.295 83.4271 277.477 83.0985 277.018 82.4599C276.497 81.7345 276.646 80.7115 276.882 79.8993C277.161 78.9197 277.483 77.9029 278.029 77.0349Z" fill="#EBA58E"/>
<path d="M278.977 82.156C278.58 82.156 278.208 81.9886 278.029 81.7344C277.948 81.6166 277.781 81.2384 278.072 80.2402C278.332 79.3536 278.624 78.4236 279.083 77.692C279.523 76.9914 280.124 76.4892 280.738 76.3094C280.893 76.266 281.054 76.2412 281.222 76.2412C281.668 76.2412 282.071 76.4024 282.301 76.6752C282.573 76.9976 282.679 77.5494 282.579 78.1074C282.455 78.808 282.046 79.4962 281.705 80.0232C281.246 80.73 280.856 81.2012 280.441 81.5422C279.988 81.9142 279.486 82.1312 279.033 82.1498L278.977 82.156Z" fill="#DE7274"/>
<path d="M276.1 74.6544C276.1 74.6544 271.14 72.5898 271.798 66.7556C266.608 68.4172 260.867 68.2808 255.746 66.4146C254.605 68.256 253.935 70.4198 253.935 72.7448V78.5294C253.935 85.1758 259.323 90.5698 265.976 90.5698C271.475 90.5698 276.1 86.8807 277.539 81.8463C277.216 81.5053 276.919 81.1396 276.671 80.7304C275.592 78.982 275.332 76.564 276.1 74.6544Z" fill="#EBA58E"/>
<path d="M256.775 71.821C255.702 72.0876 254.853 73.0052 254.4 74.1956L259.646 72.8812C258.889 71.9884 257.841 71.5544 256.775 71.821Z" fill="#422C4F"/>
<path d="M257.277 77.1155C257.719 77.1155 258.077 76.6408 258.077 76.0553C258.077 75.4698 257.719 74.9951 257.277 74.9951C256.836 74.9951 256.477 75.4698 256.477 76.0553C256.477 76.6408 256.836 77.1155 257.277 77.1155Z" fill="#422C4F"/>
<path d="M268.183 72.3912C269.597 72.6578 270.719 73.5754 271.314 74.7658L264.395 73.4514C265.387 72.5586 266.769 72.1184 268.183 72.3912Z" fill="#422C4F"/>
<path d="M266.459 76.6259C266.459 77.2087 266.931 77.6861 267.52 77.6861C268.102 77.6861 268.58 77.2149 268.58 76.6259C268.58 76.0431 268.109 75.5657 267.52 75.5657C266.931 75.5657 266.459 76.0369 266.459 76.6259Z" fill="#422C4F"/>
<path d="M262.709 82.6273C262.702 82.6273 262.702 82.6273 262.696 82.6273C262.15 82.5777 261.599 82.5095 261.035 82.4351C260.458 82.3607 259.943 82.0445 259.615 81.5671C259.298 81.1021 259.193 80.5255 259.323 79.9799C259.763 78.1943 260.353 76.4273 261.072 74.7347C261.103 74.6541 261.196 74.6169 261.276 74.6541C261.357 74.6851 261.394 74.7781 261.357 74.8587C260.644 76.5389 260.055 78.2873 259.621 80.0543C259.509 80.5193 259.596 80.9905 259.869 81.3935C260.148 81.7965 260.582 82.0693 261.072 82.1313C261.636 82.2057 262.182 82.2739 262.721 82.3235C262.808 82.3297 262.87 82.4041 262.864 82.4909C262.857 82.5653 262.789 82.6273 262.709 82.6273Z" fill="#422C4F"/>
<path d="M267.538 83.2537C264.965 83.5513 262.399 83.8551 259.826 84.1527C260.78 85.3865 262.318 86.1863 263.874 86.0499C265.43 85.9197 266.819 84.6363 267.538 83.2537Z" fill="white"/>
<path d="M276.665 157.734H254.035L219.06 167.289C210.87 169.527 206.437 178.38 209.556 186.279L225 225.42L240.19 219.455L234.3 186.955H247.835L276.665 168.169V157.734Z" fill="#5088BA"/>
<path d="M241.827 218.811L223.357 226.065L225.36 232.668L243.836 225.42L241.827 218.811Z" fill="#6CA7D3"/>
<path d="M224.082 248.93C223.797 249.767 223.642 250.654 223.642 251.565H248.665L247.859 248.93H224.082Z" fill="#BD6C67"/>
<path d="M241.008 226.53L228.825 231.31L231.851 239.295C232.421 240.796 231.746 242.488 230.301 243.183L228.298 244.15C226.277 245.123 224.777 246.866 224.082 248.924H247.859L241.008 226.53Z" fill="#8C404C"/>
<path d="M239.508 181.065L240.655 186.961H247.835L276.665 168.175V162.105L248.194 168.008C242.211 169.242 238.342 175.063 239.508 181.065Z" fill="#457BA3"/>
<path d="M287.465 157.734L257.953 165.646C249.633 167.878 244.208 175.876 245.206 184.432L249.49 221.08H267.16L268.555 184.655H281.42C294.087 184.655 304.36 174.381 304.36 161.715V151.813L287.465 157.734Z" fill="#5088BA"/>
<path d="M268.605 221.08H247.835V227.385H268.605V221.08Z" fill="#6CA7D3"/>
<path d="M265.815 227.385H250.829V237.931C250.829 241.242 249.025 244.286 246.13 245.88C244.071 247.008 242.571 248.874 241.87 251.044H265.815V227.385Z" fill="#A64F5A"/>
<path d="M241.87 251.044C241.585 251.931 241.43 252.867 241.43 253.828V254.045H265.815V251.05H241.87V251.044Z" fill="#DF8D6D"/>
<path d="M268.555 184.655L268.933 174.784C271.395 177.376 271.915 181.251 270.235 184.401L270.105 184.649H268.555V184.655Z" fill="#457BA3"/>
<path d="M265.815 221.235C265.728 221.235 265.66 221.167 265.66 221.08V183.105C265.66 183.018 265.728 182.95 265.815 182.95C265.901 182.95 265.97 183.018 265.97 183.105V221.08C265.97 221.167 265.901 221.235 265.815 221.235Z" fill="#422C4F"/>
<path d="M238.69 211.327C238.615 211.327 238.553 211.278 238.535 211.197L231.826 174.165C231.814 174.078 231.87 173.997 231.95 173.985C232.037 173.966 232.118 174.028 232.13 174.109L238.838 211.141C238.851 211.228 238.795 211.309 238.714 211.321C238.708 211.327 238.696 211.327 238.69 211.327Z" fill="#422C4F"/>
<path d="M235.335 218.966C235.267 218.966 235.205 218.916 235.187 218.848L225.577 179.267C225.558 179.186 225.608 179.1 225.688 179.081C225.769 179.062 225.856 179.112 225.874 179.193L235.484 218.773C235.503 218.854 235.453 218.941 235.373 218.959C235.354 218.966 235.342 218.966 235.335 218.966Z" fill="#422C4F"/>
<path d="M224.529 165.95C224.461 165.95 224.399 165.906 224.38 165.838C224.355 165.757 224.405 165.671 224.492 165.646L253.997 157.586C254.078 157.561 254.165 157.611 254.19 157.697C254.214 157.778 254.165 157.865 254.078 157.89L224.572 165.95C224.56 165.95 224.541 165.95 224.529 165.95Z" fill="#422C4F"/>
<path d="M247.642 205.425C247.568 205.425 247.5 205.369 247.487 205.289L245.051 184.45C244.046 175.882 249.577 167.735 257.91 165.497L282.437 158.919C282.517 158.9 282.604 158.944 282.629 159.03C282.654 159.111 282.604 159.198 282.517 159.223L257.99 165.801C249.806 167.996 244.375 176 245.355 184.419L247.791 205.258C247.804 205.344 247.742 205.419 247.655 205.431C247.655 205.425 247.649 205.425 247.642 205.425Z" fill="#422C4F"/>
<path d="M283.857 95.4243H280.205C279.262 97.7989 277.464 99.8387 275.189 101.011C272.25 102.523 268.598 102.554 265.635 101.097C263.446 100.019 261.679 98.1523 260.662 95.9389H253.012C245.696 95.9389 239.167 100.521 236.681 107.403L229.396 127.571L247.63 132.42L250.005 123.938L254.035 157.734H276.665L299.4 140.17L283.857 95.4243Z" fill="#FBEED1"/>
<path d="M283.857 95.4243H290.063C297.087 95.4243 303.424 99.6589 306.108 106.157L313.455 123.938L296.064 130.566L283.857 95.4243Z" fill="#FBEED1"/>
<path d="M276.665 157.734L299.4 140.17L296.064 130.566L310.771 124.961L315.309 138.18C316.971 143.016 314.416 148.286 309.593 149.978L287.465 157.734L269.33 162.595L276.665 157.734Z" fill="#EBA58E"/>
<path d="M310.765 124.961L296.064 130.566L297.614 135.03L311.099 125.935L310.765 124.961Z" fill="#422C4F"/>
<path d="M245.46 160.078L243.29 139.097L246.322 132.072L231.057 128.018L229.371 133.87C228.391 137.268 228.515 140.883 229.718 144.206L236.365 162.558L245.46 160.078Z" fill="#EBA58E"/>
<path d="M231.064 128.018L246.322 132.072L244.797 135.606L230.772 129.016L231.064 128.018Z" fill="#422C4F"/>
<path d="M289.771 112.462L292.239 135.923C292.45 137.95 291.824 139.978 290.497 141.528L276.665 157.734L299.4 140.17L289.771 112.462Z" fill="#F7DD8C"/>
<path d="M250.005 123.938L248.306 109.678L246.898 116.889C246.173 120.584 246.929 124.416 248.994 127.565L250.005 123.938Z" fill="#F7DD8C"/>
<path d="M296.064 130.721C296.002 130.721 295.94 130.684 295.916 130.616L288.662 109.728C288.637 109.647 288.674 109.56 288.755 109.529C288.835 109.505 288.922 109.542 288.953 109.622L296.213 130.51C296.238 130.591 296.201 130.678 296.12 130.709C296.095 130.721 296.083 130.721 296.064 130.721Z" fill="#422C4F"/>
<path d="M294.378 125.99C294.316 125.99 294.254 125.953 294.235 125.891C294.204 125.81 294.248 125.724 294.328 125.693L309.153 120.1C309.227 120.069 309.32 120.113 309.351 120.193C309.382 120.274 309.339 120.361 309.258 120.392L294.434 125.984C294.415 125.984 294.397 125.99 294.378 125.99Z" fill="#422C4F"/>
<path d="M286.591 150.22C286.547 150.22 286.498 150.201 286.467 150.158C286.417 150.09 286.43 149.991 286.492 149.941L303.486 136.815C303.554 136.766 303.653 136.772 303.703 136.84C303.752 136.909 303.74 137.008 303.678 137.057L286.684 150.189C286.659 150.214 286.622 150.22 286.591 150.22Z" fill="#422C4F"/>
<path d="M252.745 147.076C252.671 147.076 252.602 147.021 252.59 146.94L248.151 109.703C248.138 109.616 248.2 109.542 248.287 109.529C248.368 109.517 248.448 109.579 248.461 109.666L252.9 146.909C252.912 146.996 252.85 147.07 252.764 147.083C252.757 147.076 252.751 147.076 252.745 147.076Z" fill="#422C4F"/>
<path d="M248.318 130.12C248.306 130.12 248.293 130.12 248.275 130.113C248.194 130.089 248.145 130.002 248.169 129.921L249.856 123.895C249.881 123.814 249.961 123.765 250.048 123.789C250.129 123.814 250.178 123.901 250.153 123.982L248.467 130.008C248.448 130.076 248.386 130.12 248.318 130.12Z" fill="#422C4F"/>
<path d="M248.783 128.458C248.771 128.458 248.758 128.458 248.746 128.452L233.252 124.515C233.172 124.496 233.122 124.409 233.141 124.329C233.159 124.248 233.246 124.198 233.327 124.217L248.82 128.154C248.901 128.173 248.951 128.259 248.932 128.34C248.92 128.408 248.851 128.458 248.783 128.458Z" fill="#422C4F"/>
<path d="M90.3484 203.1H93.3988L94.211 210.409L90.9684 208.655L90.3484 203.1Z" fill="#422C4F"/>
<path d="M94.211 210.409L99.388 256.835H96.3438L90.9684 208.655L94.211 210.409Z" fill="#99A3B0"/>
<path d="M67.613 209.597L72.883 256.835H69.8326L64.3704 207.842L67.613 209.597Z" fill="#99A3B0"/>
<path d="M63.8434 203.1H66.8876L67.613 209.597L64.3704 207.843L63.8434 203.1Z" fill="#422C4F"/>
<path d="M52.3734 203.1H55.4176L54.6736 209.765L51.803 208.215L52.3734 203.1Z" fill="#422C4F"/>
<path d="M46.378 256.835L51.803 208.215L54.6736 209.765L49.4284 256.835H46.378Z" fill="#99A3B0"/>
<path d="M25.8622 203.1H28.9126L28.2182 209.318L25.3414 207.768L25.8622 203.1Z" fill="#422C4F"/>
<path d="M19.873 256.835L25.3414 207.768L28.2182 209.318L22.9172 256.835H19.873Z" fill="#99A3B0"/>
<path d="M95.5936 203.1C92.8222 197.104 86.8268 193.267 80.2238 193.267H60.049L49.1432 122.264L33.8168 109.87H24.1014C11.9432 109.87 2.64324 120.708 4.49084 132.724L13.6854 192.585C14.6154 198.636 19.8234 203.1 25.9428 203.1H95.5936Z" fill="#797C99"/>
<path d="M105.297 203.1C102.525 197.104 96.5298 193.267 89.9268 193.267H69.752L60.452 132.73C58.4308 119.58 47.1158 109.87 33.8106 109.87C21.6524 109.87 12.3524 120.708 14.2 132.724L22.3716 185.907C23.0226 190.142 26.6682 193.267 30.9524 193.267H43.681C50.284 193.267 56.2856 197.104 59.0508 203.1H105.297Z" fill="#495375"/>
<path d="M73.565 166.724L63.3164 193.267H114.64L105.495 232.742H130.295L137.32 190.557C138.969 180.65 131.895 171.418 121.9 170.432L84.4088 166.731H73.565V166.724Z" fill="#537496"/>
<path d="M114.64 193.267L117.566 180.643L113.853 183.973C113.04 184.704 112.575 185.74 112.575 186.837C112.575 188.778 111.131 190.415 109.203 190.65L107.671 190.836L107.268 193.267H114.64Z" fill="#495375"/>
<path d="M127.511 247.963C127.468 247.92 127.424 247.876 127.387 247.833L126.829 247.213C125.49 245.719 124.901 243.697 125.223 241.713L126.73 232.742H115.297L113.853 241.465C113.58 243.183 113.022 244.851 112.141 246.345C111.528 247.393 110.802 248.93 110.269 250.945H124.337C125.05 249.649 126.184 248.614 127.511 247.963Z" fill="#A64F5A"/>
<path d="M133.438 250.232L131.547 250.003C130.004 249.817 128.578 249.091 127.517 247.963C126.191 248.614 125.056 249.649 124.343 250.945H110.275C110.027 251.881 109.816 252.917 109.686 254.064C109.519 255.539 110.666 256.835 112.154 256.835H139.297C139.285 253.469 136.774 250.635 133.438 250.232Z" fill="#ECA85E"/>
<path d="M115.297 232.742H126.73L126.501 234.149L114.702 236.481L115.297 232.742Z" fill="#422C4F"/>
<path d="M96.3067 247.963C96.2633 247.92 96.2199 247.876 96.1827 247.833L95.6247 247.213C94.2855 245.719 93.6965 243.697 94.0189 241.713L95.4697 232.742H84.0369L82.6481 241.465C82.3753 243.183 81.8173 244.851 80.9369 246.345C80.3231 247.393 79.5977 248.93 79.0645 250.945H93.1323C93.8453 249.649 94.9861 248.614 96.3067 247.963Z" fill="#BD6C67"/>
<path d="M102.234 250.232L100.343 250.003C98.7991 249.817 97.3731 249.091 96.3129 247.963C94.9861 248.614 93.8515 249.649 93.1385 250.945H79.0707C78.8227 251.881 78.6118 252.917 78.4816 254.064C78.3142 255.539 79.4613 256.835 80.9493 256.835H108.093C108.08 253.469 105.569 250.635 102.234 250.232Z" fill="#F4D071"/>
<path d="M84.0369 232.742H95.4697L95.2403 234.149L83.4417 236.481L84.0369 232.742Z" fill="#422C4F"/>
<path d="M43.96 166.724L41.201 173.873C37.5926 183.216 44.487 193.267 54.5062 193.267H85.035L75.89 232.742H100.69L107.845 189.795C109.444 180.172 102.81 171.12 93.157 169.756L71.7608 166.724H43.96Z" fill="#6081A8"/>
<path d="M85.035 193.267L87.9614 180.643L84.3902 184.19C82.0032 186.558 81.0546 190.012 81.8854 193.267H85.035Z" fill="#495375"/>
<path d="M85.035 193.422H63.3164C63.2296 193.422 63.1614 193.353 63.1614 193.267C63.1614 193.18 63.2296 193.112 63.3164 193.112H85.035C85.1218 193.112 85.19 193.18 85.19 193.267C85.19 193.353 85.1218 193.422 85.035 193.422Z" fill="#422C4F"/>
<path d="M77.2044 227.224C77.192 227.224 77.1796 227.224 77.1672 227.218C77.0866 227.199 77.0308 227.112 77.0494 227.032L87.8002 180.612C87.8188 180.532 87.8994 180.476 87.9862 180.495C88.0668 180.513 88.1226 180.6 88.104 180.681L77.3532 227.1C77.3408 227.174 77.2788 227.224 77.2044 227.224Z" fill="#422C4F"/>
<path d="M93.157 169.911C93.1508 169.911 93.1446 169.911 93.1322 169.911L79.8022 168.02C79.7154 168.008 79.6596 167.927 79.672 167.847C79.6844 167.76 79.765 167.704 79.8456 167.716L93.1756 169.607C93.2624 169.62 93.3182 169.7 93.3058 169.781C93.2996 169.855 93.2314 169.911 93.157 169.911Z" fill="#422C4F"/>
<path d="M101.508 227.986C101.502 227.986 101.49 227.986 101.484 227.986C101.397 227.974 101.341 227.893 101.353 227.807L106.09 199.367C106.103 199.28 106.183 199.225 106.27 199.237C106.357 199.249 106.413 199.33 106.4 199.417L101.663 227.856C101.651 227.931 101.583 227.986 101.508 227.986Z" fill="#422C4F"/>
<path d="M93.7647 124.67L98.1047 139.097L119.389 164.455L113.691 169.62L93.1819 151.503C90.2431 148.905 88.1351 145.495 87.1369 141.707L83.5347 128.08L93.7647 124.67Z" fill="#A64F5A"/>
<path d="M93.7647 124.67L83.5347 128.08L87.1369 141.707C87.1555 141.782 87.1803 141.85 87.2051 141.924L96.1517 132.599L93.7647 124.67Z" fill="#422C4F"/>
<path d="M81.7056 102.405C85.2458 102.232 88.4512 104.476 89.499 107.861L95.6494 127.732L89.375 129.165L85.655 118.47L81.7056 102.405Z" fill="#F4D071"/>
<path d="M85.655 118.47L89.375 129.165L94.8062 127.925L84.136 112.294L85.655 118.47Z" fill="#ECA85E"/>
<path d="M85.6922 84.7294C88.104 81.2884 90.2864 77.5807 91.173 73.4763C92.0596 69.3719 91.5016 64.7839 88.879 61.4979C86.2626 58.2119 81.3522 56.662 77.6136 58.584C73.0132 55.5708 67.4952 53.6425 62.3678 55.6327C57.2404 57.6229 53.1918 62.1923 51.834 67.5244C49.0936 78.2689 56.856 89.8691 53.3282 100.384C51.8774 104.712 48.6906 108.19 45.9502 111.842C43.2098 115.494 40.7608 119.803 41.1948 124.347C41.7528 130.182 47.2522 134.726 53.0616 135.495C57.6434 136.096 62.4546 134.683 65.9762 131.694C70.0868 128.204 72.2692 122.897 73.2302 117.589C74.1912 112.282 74.0796 106.845 74.4206 101.463C74.6376 98.0965 75.053 94.6741 76.4604 91.6051C77.8678 88.5299 82.431 85.5912 85.6922 84.7294Z" fill="#422C4F"/>
<path d="M91.3219 126.84L87.3601 117.85L81.7057 102.406L66.8877 103.137C58.3751 103.559 51.7969 110.776 52.1689 119.288L52.4541 125.91L51.6295 142.668C51.4745 145.843 50.8111 148.968 49.6703 151.931L43.9601 166.724H84.4089L87.2299 147.963L87.7259 142.482C87.8933 140.641 88.6187 138.893 89.8091 137.473C92.2953 134.503 92.8843 130.38 91.3219 126.84Z" fill="#F4D071"/>
<path d="M91.3219 126.995C91.2599 126.995 91.2041 126.958 91.1793 126.902L87.2175 117.912L84.1051 109.412C84.0741 109.331 84.1175 109.244 84.1981 109.213C84.2787 109.182 84.3655 109.226 84.3965 109.306L87.5089 117.8L91.4645 126.778C91.5017 126.858 91.4645 126.945 91.3839 126.982C91.3591 126.989 91.3405 126.995 91.3219 126.995Z" fill="#422C4F"/>
<path d="M75.2639 137.591C75.1833 137.591 75.1151 137.529 75.1089 137.448C75.1027 137.361 75.1647 137.287 75.2515 137.281C78.3081 137.057 81.2469 135.476 83.1193 133.052C83.1751 132.984 83.2681 132.972 83.3363 133.027C83.4045 133.077 83.4169 133.176 83.3611 133.244C81.4391 135.737 78.4135 137.361 75.2701 137.597C75.2763 137.591 75.2701 137.591 75.2639 137.591Z" fill="#422C4F"/>
<path d="M66.6644 91.3447L66.28 103.515L68.2082 105.493C71.3392 108.705 76.7394 107.614 78.37 103.435L77.285 94.2897L66.6644 91.3447Z" fill="#BD6C67"/>
<path d="M74.2036 100.62C75.4808 100.818 76.8076 100.589 77.967 100.025L77.285 94.2897L66.6706 91.3447L66.621 92.9505C67.2286 94.3889 67.9168 95.7963 68.8468 97.0487C70.1488 98.8219 72.0274 100.285 74.2036 100.62Z" fill="#422C4F"/>
<path d="M86.8144 74.7597V81.4681C86.8144 84.4131 86.3184 87.3395 85.345 90.1233C83.857 94.3827 79.8394 97.2347 75.3258 97.2347C72.6908 97.2347 70.155 96.2551 68.202 94.4881L64.482 91.1153C62.9754 89.7513 61.9028 87.9719 61.3944 86.0003C72.79 81.0403 76.82 72.5959 76.9688 65.8503C84.725 69.0247 86.8144 74.7597 86.8144 74.7597Z" fill="#BD6C67"/>
<path d="M75.1894 75.1316C73.596 75.4354 72.325 76.4646 71.6492 77.8162L79.4674 76.3344C78.3452 75.3238 76.7828 74.8278 75.1894 75.1316Z" fill="#422C4F"/>
<path d="M77.1362 79.918C77.1362 80.5752 76.603 81.1146 75.9396 81.1146C75.2762 81.1146 74.743 80.5814 74.743 79.918C74.743 79.2546 75.2762 78.7214 75.9396 78.7214C76.603 78.7214 77.1362 79.2546 77.1362 79.918Z" fill="#422C4F"/>
<path d="M84.9978 75.1316C85.9588 75.4354 86.7276 76.4646 87.1368 77.8162L82.4186 76.3344C83.0944 75.3238 84.0368 74.8278 84.9978 75.1316Z" fill="#422C4F"/>
<path d="M83.826 79.918C83.826 80.5752 84.1485 81.1146 84.5453 81.1146C84.9421 81.1146 85.2644 80.5814 85.2644 79.918C85.2644 79.2546 84.9421 78.7214 84.5453 78.7214C84.1485 78.7214 83.826 79.2546 83.826 79.918Z" fill="#422C4F"/>
<path d="M81.1042 86.7689C80.7756 86.7689 80.4594 86.738 80.1556 86.707C80.0688 86.7008 80.0068 86.6202 80.0192 86.5396C80.0254 86.4528 80.106 86.3908 80.1866 86.4032C80.7756 86.4652 81.3832 86.521 81.9536 86.3598C82.4496 86.2172 82.9828 85.8142 83.0634 85.25C83.1254 84.8222 82.9208 84.3943 82.7224 83.9789L82.6728 83.8674C81.8916 82.1872 81.5382 80.3272 81.6436 78.4734C81.6498 78.3866 81.718 78.3245 81.8048 78.3307C81.8916 78.3369 81.9536 78.4114 81.9474 78.492C81.842 80.29 82.1892 82.1003 82.9456 83.7372L82.9952 83.8488C83.2122 84.3076 83.4354 84.7788 83.361 85.2996C83.2618 86.0002 82.6232 86.49 82.028 86.6636C81.7304 86.7442 81.4142 86.7689 81.1042 86.7689Z" fill="#422C4F"/>
<path d="M82.6418 88.6785C79.9944 89.0257 77.347 89.3729 74.6996 89.7263C75.4064 91.2453 77.1734 92.1381 78.8474 92.0017C80.5152 91.8591 82.1954 90.2967 82.6418 88.6785Z" fill="white"/>
<path d="M54.345 139.097L68.295 136.915L70.2046 153.19L103.889 142.855L105.855 151.739L72.9574 166.737C65.0524 170.339 55.9942 164.908 55.4362 156.24L54.345 139.097Z" fill="#BD6C67"/>
<path d="M68.295 136.915L54.345 139.097L54.7108 144.826L68.4748 138.422L68.295 136.915Z" fill="#422C4F"/>
<path d="M70.2604 136.605L53.291 139.258L53.0554 137.274L62.7398 135.805C65.7158 135.352 67.7928 132.631 67.4456 129.642L65.97 116.951C65.629 114.012 63.9426 111.396 61.4068 109.864L61.6114 109.939C64.916 111.179 67.2658 114.136 67.7308 117.633L70.2604 136.605Z" fill="#ECA85E"/>
<path d="M53.285 139.42C53.2106 139.42 53.1424 139.364 53.13 139.29C53.1176 139.203 53.1734 139.128 53.2602 139.11L70.0808 136.475L67.576 117.658C67.1172 114.211 64.8108 111.309 61.5558 110.088L61.3512 110.013C61.2706 109.982 61.2334 109.895 61.2582 109.815C61.2892 109.734 61.376 109.691 61.4566 109.722L61.6612 109.796C65.0216 111.061 67.4024 114.056 67.8798 117.614L70.4032 136.58C70.4156 136.661 70.3536 136.741 70.273 136.754L53.3036 139.407C53.3036 139.42 53.2974 139.42 53.285 139.42Z" fill="#422C4F"/>
<path d="M63.3164 155.459C63.2482 155.459 63.1862 155.416 63.1676 155.347C63.1428 155.267 63.1862 155.18 63.273 155.155L98.8734 144.237C98.954 144.212 99.0408 144.256 99.0656 144.342C99.0904 144.423 99.047 144.51 98.9602 144.535L63.3598 155.453C63.3474 155.453 63.335 155.459 63.3164 155.459Z" fill="#422C4F"/>
<path d="M200.008 82.0947V96.7701C200.008 101.222 196.399 104.83 191.948 104.83H190.59L189.35 106.796H173.54L178.916 98.4255L200.008 82.0947Z" fill="#F2C9AD"/>
<path d="M200.045 84.9157L196.399 89.9501V95.3751C196.399 98.4565 193.901 100.955 190.819 100.955H181.104C179.182 100.955 177.396 99.9631 176.373 98.3387C166.348 82.4047 168.946 70.3519 180.044 71.9701C189.586 58.1751 213.914 74.6051 200.045 84.9157Z" fill="#6A3649"/>
<path d="M198.576 86.9495L196.406 89.9503V95.2203C196.691 96.0821 197.522 96.4851 198.148 96.3053C198.774 96.1193 199.301 95.4931 199.729 94.7801C200.268 93.8811 200.69 92.7899 200.845 91.5995C201 90.4091 200.863 89.1009 200.392 88.1213C199.909 87.1417 199.376 86.9495 198.576 86.9495Z" fill="#F2C9AD"/>
<path d="M197.832 96.5035C197.658 96.5035 197.472 96.4663 197.298 96.3981C197.218 96.3671 197.181 96.2803 197.212 96.1997C197.243 96.1191 197.329 96.0819 197.41 96.1129C197.646 96.2059 197.887 96.2183 198.098 96.1563C198.594 96.0075 199.096 95.5177 199.586 94.6993C200.163 93.7321 200.541 92.6533 200.677 91.5807C200.839 90.3531 200.671 89.0883 200.237 88.1955C199.977 87.6623 199.704 87.3647 199.338 87.2221C199.258 87.1911 199.22 87.1043 199.251 87.0237C199.282 86.9431 199.369 86.9059 199.45 86.9369C199.89 87.1043 200.219 87.4515 200.516 88.0653C200.981 89.0263 201.155 90.3283 200.987 91.6303C200.845 92.7463 200.448 93.8685 199.853 94.8729C199.313 95.7781 198.768 96.2989 198.185 96.4725C198.073 96.4849 197.956 96.5035 197.832 96.5035Z" fill="#422C4F"/>
<path d="M178.388 249.092C177.365 247.858 176.566 246.457 176.02 244.95L175.605 243.815H162.727L161.729 254.045H181.023C180.484 252.235 179.597 250.549 178.388 249.092Z" fill="#454F6B"/>
<path d="M181.017 254.045H161.723L161.45 256.835H181.6L181.402 255.67C181.309 255.118 181.178 254.579 181.017 254.045Z" fill="white"/>
<path d="M175.605 243.815H162.727L162.343 247.759L175.605 243.815Z" fill="#422C4F"/>
<path d="M186.579 181.4L181.619 243.815H158.889L163.75 193.595L186.579 181.4Z" fill="#984058"/>
<path d="M184.099 212.604L162.516 206.349L163.75 193.595L186.579 181.4L184.099 212.604Z" fill="#472948"/>
<path d="M218.837 249.78C216.661 248.719 214.851 247.027 213.654 244.925L213.016 243.809H201.44L199.245 254.039H223.642C222.458 252.229 220.815 250.741 218.837 249.78Z" fill="#454F6B"/>
<path d="M223.642 254.045H199.245L198.65 256.835H225L224.963 256.73C224.641 255.769 224.182 254.876 223.642 254.045Z" fill="white"/>
<path d="M213.016 243.815H201.44L200.597 247.758L213.016 243.815Z" fill="#422C4F"/>
<path d="M187.912 166.725L212.631 177.661C217.69 179.9 220.778 185.089 220.344 190.601L216.115 243.809H193.38L198.241 193.589L183.658 191.959H147.432V166.725H187.912Z" fill="#984058"/>
<path d="M198.247 193.595H214.15L213.158 194.327C208.781 197.569 203.126 198.53 197.925 196.918L198.247 193.595Z" fill="#472948"/>
<path d="M214.15 237.77H196.065C195.978 237.77 195.91 237.702 195.91 237.615C195.91 237.528 195.978 237.46 196.065 237.46H214.15C214.237 237.46 214.305 237.528 214.305 237.615C214.305 237.702 214.237 237.77 214.15 237.77Z" fill="#422C4F"/>
<path d="M179.808 237.77H161.723C161.636 237.77 161.568 237.702 161.568 237.615C161.568 237.528 161.636 237.46 161.723 237.46H179.808C179.895 237.46 179.963 237.528 179.963 237.615C179.963 237.702 179.895 237.77 179.808 237.77Z" fill="#422C4F"/>
<path d="M213.015 241.385C213.009 241.385 213.009 241.385 213.003 241.385C212.916 241.379 212.854 241.304 212.86 241.217L216.686 197.675C216.692 197.588 216.766 197.52 216.853 197.532C216.94 197.538 217.002 197.613 216.996 197.7L213.17 241.242C213.158 241.323 213.096 241.385 213.015 241.385Z" fill="#422C4F"/>
<path d="M230.345 122.655L224.789 112.785C225.986 112.233 227.4 112.537 228.261 113.529L229.954 115.469L230.345 122.655Z" fill="#EBA58E"/>
<path d="M227.865 125.984L230.345 122.649L229.105 115.364C228.987 109.592 231.491 106.572 232.781 105.407C233.184 105.047 233.773 104.997 234.22 105.301L234.232 105.314C234.765 105.679 234.883 106.399 234.523 106.932C232.62 109.784 232.434 112.735 232.434 112.735C233.885 109.771 236.104 108.023 237.233 107.273C237.642 107 238.175 107.025 238.566 107.316L242.013 109.926C242.54 110.323 242.627 111.086 242.199 111.588C240.426 113.677 239.49 116.61 239.49 116.61C240.73 121.496 238.404 124.744 237.394 125.29L233.364 131.726L227.865 125.984Z" fill="#F2C9AD"/>
<path d="M145.64 121.57C147.847 111.78 156.54 104.83 166.571 104.83H187.502C196.108 104.83 203.852 110.063 207.063 118.048L215.08 138L226.655 124.565C234.92 124.98 236.371 133.449 236.371 133.449L220.474 153.76C215.867 159.644 206.66 158.516 203.61 151.696L196.48 135.78L189.97 169.415C180.155 175.2 151.425 173.755 145.64 170.655V121.57Z" fill="#6CA8BC"/>
<path d="M196.48 135.78L199.4 120.696L200.008 143.667L196.48 135.78Z" fill="#468097"/>
<path d="M215.08 138L218.664 146.922L219.005 142.191C219.166 139.928 218.316 137.709 216.686 136.134L215.08 138Z" fill="#468097"/>
<path d="M235.18 113.777C235.156 113.777 235.131 113.77 235.106 113.758C235.032 113.721 235.001 113.622 235.044 113.547C236.03 111.681 237.425 110.001 239.08 108.693C239.148 108.643 239.241 108.649 239.297 108.718C239.347 108.786 239.341 108.885 239.272 108.934C237.654 110.218 236.284 111.867 235.317 113.69C235.286 113.746 235.236 113.777 235.18 113.777Z" fill="#422C4F"/>
<path d="M237.772 114.471C237.747 114.471 237.716 114.465 237.691 114.446C237.617 114.403 237.592 114.304 237.642 114.236C238.479 112.847 239.514 111.588 240.711 110.497C240.773 110.441 240.872 110.441 240.928 110.509C240.984 110.571 240.984 110.671 240.915 110.726C239.737 111.799 238.727 113.039 237.902 114.397C237.877 114.446 237.828 114.471 237.772 114.471Z" fill="#422C4F"/>
<path d="M229.39 124.094C229.359 124.094 229.328 124.081 229.297 124.063C229.228 124.013 229.216 123.914 229.266 123.846L230.183 122.612L229.241 117.063C229.229 116.976 229.284 116.895 229.365 116.883C229.458 116.871 229.532 116.926 229.545 117.007L230.5 122.624C230.506 122.668 230.5 122.711 230.469 122.742L229.514 124.025C229.489 124.075 229.439 124.094 229.39 124.094Z" fill="#422C4F"/>
<path d="M191.439 161.988C191.427 161.988 191.421 161.988 191.408 161.988C191.322 161.969 191.272 161.889 191.284 161.808L199.245 120.671C199.264 120.584 199.344 120.535 199.425 120.547C199.512 120.566 199.561 120.646 199.549 120.727L191.588 161.864C191.576 161.938 191.508 161.988 191.439 161.988Z" fill="#422C4F"/>
<path d="M218.664 147.077C218.602 147.077 218.546 147.04 218.521 146.978L208.768 122.711C208.737 122.63 208.775 122.544 208.855 122.506C208.936 122.475 209.023 122.513 209.06 122.593L218.812 146.86C218.843 146.941 218.806 147.027 218.726 147.065C218.701 147.071 218.682 147.077 218.664 147.077Z" fill="#422C4F"/>
<path d="M215.08 138.155C215.043 138.155 215.006 138.143 214.981 138.118C214.919 138.062 214.907 137.963 214.962 137.901L221.758 130.015C221.813 129.953 221.913 129.94 221.975 129.996C222.037 130.052 222.049 130.151 221.993 130.213L215.198 138.099C215.167 138.137 215.124 138.155 215.08 138.155Z" fill="#422C4F"/>
<path d="M179.102 166.278C179.089 166.278 179.071 166.278 179.058 166.272C174.532 164.914 170.341 162.459 166.931 159.185C166.869 159.123 166.869 159.03 166.925 158.968C166.987 158.906 167.08 158.906 167.142 158.962C170.515 162.205 174.662 164.629 179.139 165.981C179.219 166.005 179.269 166.092 179.244 166.173C179.226 166.235 179.164 166.278 179.102 166.278Z" fill="#422C4F"/>
<path d="M175.338 122.048C175.276 122.048 175.214 122.01 175.189 121.942C175.158 121.862 175.202 121.775 175.282 121.744L181.265 119.654C181.346 119.623 181.433 119.667 181.464 119.747C181.495 119.828 181.451 119.915 181.371 119.946L175.382 122.035C175.369 122.041 175.351 122.048 175.338 122.048Z" fill="#422C4F"/>
<path d="M189.573 200.297C188.792 194.804 184.099 190.718 178.556 190.706L175.394 190.7C173.025 190.694 170.998 189.02 170.539 186.695L160.322 134.751C157.327 119.53 143.978 108.55 128.466 108.55H118.174L119.811 110.187C109.612 114.21 103.071 125.11 105.34 136.654L116.147 191.586C117.461 198.27 123.326 203.094 130.14 203.094H189.964L189.573 200.297Z" fill="#495375"/>
<path d="M105.867 191.593L95.0604 136.661C92.196 122.103 103.337 108.556 118.18 108.556C133.699 108.556 147.041 119.536 150.036 134.757L161.221 191.599C162.535 198.283 168.4 203.106 175.214 203.106H175.716H119.867C113.047 203.1 107.181 198.276 105.867 191.593Z" fill="#797C99"/>
<path d="M122.905 203.1H119.86L119.042 210.41L122.285 208.655L122.905 203.1Z" fill="#422C4F"/>
<path d="M119.042 210.41L113.865 256.835H116.915L122.285 208.655L119.042 210.41Z" fill="#99A3B0"/>
<path d="M145.64 209.597L140.37 256.835H143.42L148.883 207.843L145.64 209.597Z" fill="#99A3B0"/>
<path d="M149.41 203.1H146.365L145.64 209.597L148.883 207.843L149.41 203.1Z" fill="#422C4F"/>
<path d="M160.886 203.1H157.835L158.579 209.765L161.456 208.215L160.886 203.1Z" fill="#422C4F"/>
<path d="M166.875 256.835L161.456 208.215L158.579 209.765L163.831 256.835H166.875Z" fill="#99A3B0"/>
<path d="M187.391 203.1H184.34L185.035 209.318L187.912 207.768L187.391 203.1Z" fill="#422C4F"/>
<path d="M193.38 256.835L187.912 207.769L185.035 209.319L190.336 256.835H193.38Z" fill="#99A3B0"/>
<path d="M346.731 112.983L352.23 105.934C353.613 104.16 355.739 103.125 357.99 103.125L356.787 102.914C355.901 102.759 355.175 102.139 354.878 101.29L351.716 92.2378L342.391 97.1854L343.755 104.377C343.873 105.004 343.749 105.648 343.401 106.182L337.704 115.023L337.809 115.072C340.903 116.56 344.617 115.686 346.731 112.983Z" fill="#F2C9AD"/>
<path d="M364.915 171.647L357.99 103.125C355.739 103.125 353.613 104.16 352.23 105.934L346.725 112.983C344.61 115.686 340.897 116.56 337.803 115.072L337.697 115.023L328.428 129.401C327.219 131.279 327.064 133.691 328.149 135.644C328.689 136.611 329.34 137.423 330.009 138.099C332.545 140.647 333.556 144.343 332.886 147.87L330.295 161.56L364.915 171.647Z" fill="#E68799"/>
<path d="M343.265 101.798C350.786 99.4175 351.97 94.7055 351.716 92.2317L342.391 97.1793L343.265 101.798Z" fill="#422C4F"/>
<path d="M354.028 116.982L352.943 147.908C352.819 151.485 349.955 154.349 346.377 154.486L331.535 155.031L330.295 161.56L364.909 171.647L359.385 116.988H354.028V116.982Z" fill="#E36B85"/>
<path d="M344.263 140.282C344.251 140.282 344.238 140.282 344.226 140.276C341.138 139.488 338.293 137.554 336.426 134.975C336.377 134.906 336.389 134.807 336.464 134.758C336.532 134.708 336.631 134.72 336.681 134.795C338.503 137.324 341.287 139.209 344.307 139.978C344.387 139.997 344.437 140.083 344.418 140.164C344.4 140.232 344.331 140.282 344.263 140.282Z" fill="#422C4F"/>
<path d="M360.923 70.3456C362.473 64.3378 368.208 59.663 374.408 59.3654C376.702 59.2538 379.169 59.7684 380.775 61.4114C382.133 62.8064 382.678 64.8028 382.852 66.7372C383.156 70.1658 382.449 73.6006 381.668 76.9548C380.893 80.309 380.037 83.688 380.05 87.1352C380.062 90.5824 381.048 94.166 383.478 96.6026C377.148 97.6566 370.495 94.507 366.713 89.3238C362.925 84.1468 359.323 76.558 360.923 70.3456Z" fill="#EBA25D"/>
<path d="M335.54 84.1903C333.357 81.8033 331.962 78.7157 331.615 75.4979C331.386 73.3713 331.615 71.1641 332.514 69.2235C333.413 67.2829 335.007 65.6275 337.015 64.8773C339.018 64.1271 341.417 64.3751 343.098 65.6957C346.21 63.8047 350.042 63.3087 353.588 64.1271C357.134 64.9455 360.327 67.1899 362.293 70.2527C364.729 74.0471 365.213 78.9265 364.01 83.2727C362.863 87.4329 359.999 91.3203 355.907 92.6967C352.391 93.8809 348.448 93.0563 345.175 91.3141C341.901 89.5781 338.045 86.9245 335.54 84.1903Z" fill="#EBA25D"/>
<path d="M355.913 92.8578C355.851 92.8578 355.789 92.8144 355.764 92.7524C355.739 92.6718 355.783 92.585 355.863 92.554C359.552 91.314 362.621 87.7428 363.868 83.2354C365.108 78.7466 364.469 73.9292 362.169 70.3394C360.216 67.3014 357.079 65.0942 353.557 64.282C353.476 64.2634 353.421 64.1766 353.439 64.096C353.458 64.0154 353.538 63.9596 353.625 63.9782C357.221 64.809 360.433 67.0658 362.429 70.172C364.779 73.83 365.43 78.7404 364.171 83.316C362.9 87.9226 359.757 91.5744 355.969 92.8454C355.944 92.8516 355.925 92.8578 355.913 92.8578Z" fill="#422C4F"/>
<path d="M339.905 72.7947C336.774 75.3119 334.641 78.8707 333.909 82.8201L333.599 84.4693L330.189 89.9439H333.804L334.312 95.3069C334.504 97.3343 335.85 99.0703 337.766 99.7585C339.049 100.223 340.469 100.168 341.715 99.6097L348.702 96.4663C350.259 95.7657 351.263 94.2157 351.263 92.5107V89.2247C350.048 88.6977 348.417 87.8049 347.872 86.5959C347.326 85.3869 347.239 83.9733 347.648 82.7147C344.257 80.5881 341.281 76.5643 339.905 72.7947Z" fill="#F2C9AD"/>
<path d="M352.937 85.3806C353.569 85.0458 354.301 84.8474 355.008 84.9342C355.721 85.021 356.409 85.4302 356.738 86.075C357.054 86.695 356.998 87.439 356.843 88.121C356.589 89.2804 356.08 90.384 355.367 91.3326C354.847 92.0208 354.202 92.647 353.396 92.9632C352.596 93.2856 351.623 93.2546 350.928 92.7462C349.744 91.872 350.11 90.105 350.37 88.8898C350.68 87.4142 351.604 86.0874 352.937 85.3806Z" fill="#F2C9AD"/>
<path d="M352.317 91.928C352.137 91.928 351.877 91.897 351.666 91.742C351.12 91.339 351.399 90.0122 351.585 89.138C351.827 87.9848 352.553 86.9866 353.52 86.4782C353.917 86.2674 354.313 86.1558 354.667 86.1558C354.729 86.1558 354.797 86.162 354.859 86.1682C355.206 86.2116 355.516 86.3976 355.64 86.6394C355.764 86.8874 355.764 87.2966 355.64 87.8546C355.423 88.8404 354.989 89.7828 354.382 90.5888C353.917 91.2088 353.433 91.618 352.943 91.8164C352.739 91.8846 352.528 91.928 352.317 91.928Z" fill="#EBA58E"/>
<path d="M339.223 80.7865C340.636 81.0531 341.758 81.9707 342.354 83.1611L335.434 81.8467C336.426 80.9601 337.809 80.5199 339.223 80.7865Z" fill="#422C4F"/>
<path d="M338.559 86.0813C339.145 86.0813 339.619 85.6067 339.619 85.0211C339.619 84.4356 339.145 83.9609 338.559 83.9609C337.974 83.9609 337.499 84.4356 337.499 85.0211C337.499 85.6067 337.974 86.0813 338.559 86.0813Z" fill="#422C4F"/>
<path d="M341.349 92.9571C339.316 92.4983 337.177 92.4983 335.143 92.9571C335.292 93.6453 335.937 94.3273 336.526 94.7179C337.108 95.1085 337.846 95.2635 338.534 95.1395C339.595 94.9473 340.599 93.7197 341.349 92.9571Z" fill="white"/>
<path d="M318.397 158.094L359.032 169.93C366.025 171.964 372.926 166.471 372.504 159.198L371.283 138.13L357.06 140.17L358.145 158.386L328.242 154.616C325.719 154.3 323.171 154.901 321.057 156.315L318.397 158.094Z" fill="#F2C9AD"/>
<path d="M357.06 140.17L371.283 138.136L371.599 143.636C365.48 145.13 357.24 143.214 357.24 143.214L357.06 140.17Z" fill="#422C4F"/>
<path d="M357.99 103.125C364.209 103.125 369.472 107.713 370.316 113.876L373.8 139.24C366.67 142.495 355.727 142.34 355.727 142.34L354.028 116.982C353.712 112.22 355.002 107.496 357.692 103.559L357.99 103.125Z" fill="#E68799"/>
<path d="M355.467 138.62C355.386 138.62 355.318 138.558 355.312 138.478L353.873 116.994C353.7 114.397 353.997 111.824 354.754 109.331C354.778 109.251 354.865 109.201 354.946 109.226C355.026 109.251 355.076 109.337 355.051 109.418C354.307 111.873 354.016 114.415 354.183 116.97L355.622 138.453C355.628 138.539 355.566 138.614 355.479 138.62C355.473 138.62 355.473 138.62 355.467 138.62Z" fill="#422C4F"/>
<path d="M373.106 134.348C373.031 134.348 372.963 134.292 372.951 134.212L370.161 113.894C370.148 113.808 370.21 113.733 370.291 113.721C370.384 113.708 370.452 113.77 370.464 113.851L373.254 134.168C373.267 134.255 373.205 134.33 373.124 134.342C373.118 134.348 373.112 134.348 373.106 134.348Z" fill="#422C4F"/>
<path d="M363.644 159.229C363.638 159.229 363.632 159.229 363.626 159.229L334.046 155.502C333.959 155.49 333.903 155.416 333.909 155.329C333.922 155.242 333.99 155.186 334.083 155.192L363.663 158.919C363.75 158.931 363.806 159.005 363.799 159.092C363.787 159.173 363.719 159.229 363.644 159.229Z" fill="#422C4F"/>
<path d="M361.946 138.707C361.871 138.707 361.803 138.651 361.791 138.577C361.778 138.49 361.834 138.409 361.915 138.397C363.861 138.062 365.709 137.238 367.265 136.016C367.333 135.967 367.433 135.973 367.482 136.041C367.538 136.109 367.526 136.208 367.457 136.258C365.864 137.51 363.967 138.36 361.97 138.701C361.964 138.701 361.952 138.707 361.946 138.707Z" fill="#422C4F"/>
<path d="M272.244 228.185L273.583 222.543L277.396 213.15L267.055 208.947L264.978 214.062C264.048 216.356 262.2 218.123 259.912 218.978C260.371 220.398 260.563 221.905 260.452 223.387L272.244 228.185Z" fill="#F2C9AD"/>
<path d="M260.458 223.393C260.569 221.905 260.377 220.398 259.918 218.985C259.534 219.127 259.143 219.251 258.734 219.344L257.761 219.561C256.527 219.834 255.244 219.84 254.004 219.574L252.435 219.239C249.174 218.538 245.795 219.741 243.712 222.345L270.998 233.431L272.238 228.192L260.458 223.393Z" fill="#E68799"/>
<path d="M267.055 208.953L277.396 213.15L275.939 216.74L266.59 210.1L267.055 208.953Z" fill="#422C4F"/>
<path d="M263.57 207.893L283.745 167.295L299.753 175.522L287.105 218.29L263.57 207.893Z" fill="#4893D8"/>
<path d="M364.915 171.647L304.075 153.921C297.162 151.906 289.796 155.137 286.591 161.585L283.751 167.295L328.391 190.235H348.051C356.942 190.235 364.277 183.291 364.767 174.412L364.915 171.647Z" fill="#4893D8"/>
<path d="M346.167 166.34C346.154 166.34 346.136 166.34 346.123 166.334L306.592 154.82C306.511 154.796 306.462 154.709 306.487 154.628C306.511 154.548 306.598 154.498 306.679 154.523L346.21 166.036C346.291 166.061 346.34 166.148 346.315 166.228C346.297 166.297 346.235 166.34 346.167 166.34Z" fill="#422C4F"/>
<path d="M364.915 171.802C364.903 171.802 364.884 171.802 364.872 171.796L352.528 168.2C352.447 168.175 352.398 168.088 352.422 168.008C352.447 167.927 352.534 167.878 352.615 167.902L364.959 171.498C365.039 171.523 365.089 171.61 365.064 171.691C365.046 171.753 364.984 171.802 364.915 171.802Z" fill="#422C4F"/>
<path d="M297.001 174.109L290.001 175.38C284.061 176.459 279.641 181.474 279.324 187.501L276.77 235.65H304.515L300.485 192.25L328.385 190.235L297.001 174.109Z" fill="#4893D8"/>
<path d="M294.955 174.481C294.955 174.481 315.036 191.202 315.012 191.202C314.987 191.202 328.379 190.235 328.379 190.235L296.994 174.109L294.955 174.481Z" fill="#377FB5"/>
<path d="M280.143 183.744C280.124 183.744 280.106 183.744 280.087 183.731C280.006 183.7 279.969 183.614 280 183.533C281.625 179.23 285.45 176.05 289.976 175.225L296.976 173.954C297.063 173.935 297.143 173.997 297.156 174.078C297.168 174.165 297.112 174.245 297.032 174.258L290.032 175.529C285.611 176.329 281.879 179.441 280.292 183.638C280.267 183.7 280.205 183.744 280.143 183.744Z" fill="#422C4F"/>
<path d="M300.485 192.405C300.404 192.405 300.336 192.343 300.33 192.262C300.324 192.176 300.386 192.101 300.473 192.095L323.251 190.452C323.332 190.433 323.413 190.508 323.419 190.595C323.425 190.681 323.363 190.756 323.276 190.762L300.497 192.405C300.491 192.405 300.491 192.405 300.485 192.405Z" fill="#422C4F"/>
<path d="M277.657 219.14H277.65C277.564 219.134 277.502 219.065 277.502 218.979L279.027 190.229C279.033 190.149 279.101 190.08 279.182 190.08H279.188C279.275 190.087 279.337 190.155 279.337 190.242L277.812 218.991C277.805 219.072 277.737 219.14 277.657 219.14Z" fill="#422C4F"/>
<path d="M302.401 213.002C302.32 213.002 302.252 212.94 302.246 212.859L299.741 185.895C299.735 185.808 299.797 185.734 299.884 185.728C299.97 185.715 300.045 185.784 300.051 185.87L302.556 212.834C302.562 212.921 302.5 212.995 302.413 213.002C302.407 213.002 302.401 213.002 302.401 213.002Z" fill="#422C4F"/>
<path d="M295.017 251.516L294.13 245.787V235.65H282.97V241.168C282.97 243.642 281.922 245.979 280.13 247.628C281.091 248.769 281.835 250.09 282.294 251.509H295.017V251.516Z" fill="#F2C9AD"/>
<path d="M282.288 251.516C281.829 250.096 281.085 248.775 280.124 247.635C279.82 247.914 279.504 248.174 279.163 248.41L278.345 248.974C277.303 249.693 276.119 250.177 274.867 250.4L273.286 250.679C270 251.255 267.321 253.642 266.373 256.835H295.823L295.004 251.516H282.288Z" fill="#E68799"/>
<path d="M282.97 235.65H294.13V239.525L282.97 236.89V235.65Z" fill="#422C4F"/>
<path d="M385.245 201.525H388.296L389.108 208.835L385.865 207.08L385.245 201.525Z" fill="#422C4F"/>
<path d="M389.108 208.835L394.291 255.261H391.241L385.865 207.08L389.108 208.835Z" fill="#99A3B0"/>
<path d="M365.647 208.023L370.917 255.26H367.867L362.404 206.268L365.647 208.023Z" fill="#99A3B0"/>
<path d="M361.877 201.525H364.922L365.647 208.023L362.404 206.268L361.877 201.525Z" fill="#422C4F"/>
<path d="M355.715 201.525H358.765L358.021 208.19L355.144 206.64L355.715 201.525Z" fill="#422C4F"/>
<path d="M349.719 255.261L355.144 206.64L358.021 208.19L352.77 255.261H349.719Z" fill="#99A3B0"/>
<path d="M330.567 201.525H333.612L332.923 207.744L330.047 206.188L330.567 201.525Z" fill="#422C4F"/>
<path d="M324.572 255.26L330.047 206.188L332.923 207.744L327.622 255.26H324.572Z" fill="#99A3B0"/>
<path d="M405.78 111.811V106.975H395.364C383.063 106.975 372.479 115.68 370.105 127.751L359.695 180.656C358.777 185.306 354.704 188.66 349.961 188.66H336.637C329.532 188.66 323.772 194.42 323.772 201.525H381.618C388.432 201.525 394.297 196.701 395.612 190.018L408.749 123.25C409.593 118.966 408.34 114.843 405.78 111.811Z" fill="#797C99"/>
<path d="M406.028 190.018L419.165 123.25C420.821 114.824 414.373 106.975 405.78 106.975C393.479 106.975 382.895 115.68 380.521 127.751L368.276 190.018C366.961 196.701 361.096 201.525 354.282 201.525H353.78H392.04C398.854 201.525 404.713 196.701 406.028 190.018Z" fill="#495375"/>
</svg>
