<svg width="24" height="24" viewBox="0 0 24 24" fill="none" xmlns="http://www.w3.org/2000/svg">
<path d="M18.6667 24H5.33333C2.39267 24 0 21.6073 0 18.6667V5.33333C0 2.39267 2.39267 0 5.33333 0H18.6667C21.6073 0 24 2.39267 24 5.33333V18.6667C24 21.6073 21.6073 24 18.6667 24Z" fill="#1E88E5"/>
<path d="M19.9507 7.65899L15.6093 12.0003L19.95 16.341C19.9793 16.2317 20 16.119 20 16.0003V8.00033C20 7.88166 19.9793 7.76899 19.9507 7.65899ZM13.792 11.933L19.008 6.71633C18.898 6.68766 18.7853 6.66699 18.6667 6.66699H5.33333C5.21467 6.66699 5.102 6.68766 4.992 6.71633L10.208 11.933C11.1967 12.9203 12.8033 12.9203 13.792 11.933ZM12 14.0063C11.04 14.0063 10.0847 13.645 9.34 12.9363L4.992 17.2843C5.102 17.313 5.21467 17.3337 5.33333 17.3337H18.6667C18.7853 17.3337 18.898 17.313 19.008 17.2843L14.66 12.9363C13.9153 13.645 12.96 14.0063 12 14.0063ZM4.04933 7.65899C4.02067 7.76899 4 7.88166 4 8.00033V16.0003C4 16.119 4.02067 16.2317 4.04933 16.3417L8.39067 12.0003L4.04933 7.65899Z" fill="white"/>
</svg>
