<svg width="177" height="26" viewBox="0 0 177 26" fill="none" xmlns="http://www.w3.org/2000/svg">
<path d="M0 24.6369V21.7086H3.29001V3.32835H0V0.403503H20.5609V7.47738H15.1702V3.32835H9.59878V10.677H14.1304V13.6053H9.59878V21.7121H15.1702V17.1909H20.5643V24.6369H0Z" fill="#24B6C3"/>
<path d="M35.4946 15.8728V12.9444H45.0933V15.1494C45.0933 18.2794 44.21 20.7104 42.4432 22.4424C40.6765 24.1743 38.2003 25.0403 35.0216 25.0403C33.46 25.0403 32.0202 24.8003 30.6952 24.3239C29.3701 23.8474 28.2468 23.1136 27.3182 22.1293C26.3896 21.1416 25.7636 19.9314 25.4367 18.495C25.1098 17.0587 24.9464 15.1215 24.9464 12.6906C24.9464 8.29459 25.6663 5.08109 27.1095 3.05005C28.5528 1.01552 30.8239 0 33.9261 0C35.665 0 37.2648 0.438205 38.7255 1.31809V0.403427H44.1196V8.26677H38.7255C38.7255 4.88981 37.5291 3.19959 35.1398 3.19959C34.2321 3.19959 33.5539 3.42217 33.1088 3.86733C32.6636 4.31249 32.3437 5.17151 32.1454 6.44092C31.9472 7.71032 31.8498 9.65094 31.8498 12.2558C31.8498 15.0972 31.9402 17.1735 32.1176 18.4811C32.295 19.7888 32.6115 20.6756 33.0671 21.1416C33.5226 21.6077 34.2321 21.8407 35.199 21.8407C36.6005 21.8407 37.5117 21.3399 37.9256 20.3383C38.3394 19.3367 38.5481 17.8482 38.5481 15.8762H35.4946V15.8728Z" fill="#24B6C3"/>
<path d="M60.1174 15.8728V12.9444H69.7162V15.1494C69.7162 18.2794 68.8328 20.7104 67.0661 22.4424C65.2994 24.1743 62.8232 25.0403 59.6445 25.0403C58.0829 25.0403 56.6431 24.8003 55.318 24.3239C53.993 23.8474 52.8697 23.1136 51.9411 22.1293C51.0125 21.1416 50.3865 19.9314 50.0596 18.495C49.7327 17.0587 49.5692 15.1215 49.5692 12.6906C49.5692 8.29459 50.2891 5.08109 51.7324 3.05005C53.1722 1.01552 55.4467 0 58.5455 0C60.2844 0 61.8842 0.438205 63.3448 1.31809V0.403427H68.7389V8.26677H63.3448C63.3448 4.88981 62.1485 3.19959 59.7592 3.19959C58.8515 3.19959 58.1733 3.42217 57.7282 3.86733C57.283 4.31249 56.9631 5.17151 56.7648 6.44092C56.5666 7.71032 56.4692 9.65094 56.4692 12.2558C56.4692 15.0972 56.5596 17.1735 56.737 18.4811C56.9144 19.7888 57.2308 20.6756 57.6864 21.1416C58.142 21.6077 58.8515 21.8407 59.8183 21.8407C61.2199 21.8407 62.1311 21.3399 62.5449 20.3383C62.9588 19.3367 63.1675 17.8482 63.1675 15.8762H60.1174V15.8728Z" fill="#24B6C3"/>
<path d="M82.9911 13.2053V21.7121H85.0951V24.6404H73.274V21.7121H76.6823V3.32835H73.274V0.403503H85.0951V3.33183H82.9911V10.2805H89.2442V3.32835H87.1401V0.403503H98.9612V3.33183H95.5529V21.7156H98.9612V24.6439H87.1401V21.7156H89.2442V13.2053H82.9911Z" fill="#24B6C3"/>
<path d="M101.747 24.6369V21.7086H105.037V3.32835H101.747V0.403503H122.308V7.47738H116.914V3.32835H111.342V10.677H115.877V13.6053H111.342V21.7121H116.914V17.1909H122.308V24.6369H101.747Z" fill="#24B6C3"/>
<path d="M135.614 16.2102L134.522 21.7121H137.36V24.6404H125.421V21.7121H128.206L133.124 3.32835H130.015V0.403503H146.548V3.33183H143.439L148.357 21.7156H151.142V24.6439H139.203V21.7156H142.041L140.949 16.2137H135.614V16.2102ZM136.01 13.2853H140.546L138.633 2.47628H137.923L136.01 13.2853Z" fill="#24B6C3"/>
<path d="M154.366 24.6369V21.7086H157.625V3.32835H154.366V0.403503H162.424C167.561 0.403503 171.272 1.39468 173.564 3.37704C175.856 5.35939 177 8.43726 177 12.6072C177 16.6936 175.831 19.7193 173.487 21.6843C171.147 23.6527 167.516 24.6369 162.598 24.6369H154.366ZM163.937 3.32835V21.7121C166.24 21.6912 167.843 21.0409 168.744 19.7645C169.648 18.4881 170.1 16.238 170.1 13.0106C170.1 10.4926 169.912 8.53812 169.533 7.15742C169.154 5.77325 168.531 4.79251 167.659 4.20476C166.786 3.62048 165.544 3.32835 163.937 3.32835Z" fill="#24B6C3"/>
</svg>
