<svg width="58" height="27" viewBox="0 0 58 27" fill="none" xmlns="http://www.w3.org/2000/svg">
<path d="M23.3044 5.9846C22.8582 4.34319 21.9756 3.0438 20.6807 2.12465C19.0465 0.963631 17.1668 0.551873 15.5434 0.302118C13.2972 -0.0432633 11.2626 -0.0916394 9.32504 0.15249C7.50752 0.381995 6.13948 0.748752 4.89034 1.34051C2.44335 2.49928 0.97494 4.37582 0.526562 6.91612C0.308373 8.14914 0.162186 9.26404 0.0770926 10.3272C-0.119278 12.7854 0.0585466 14.9611 0.621474 16.9772C1.16913 18.9426 2.12698 20.3477 3.54957 21.2703C3.91286 21.5054 4.37542 21.6753 4.82489 21.8395C5.04962 21.9217 5.26563 22.0027 5.45436 22.0882V26.0595C5.45436 26.5792 5.86238 27 6.36639 27C6.60422 27 6.83223 26.9044 7.00241 26.7334L10.5556 23.1693C10.7105 22.9871 10.7105 22.9871 10.8698 22.9837C12.084 22.9589 13.3244 22.9106 14.5572 22.8419C16.0507 22.7575 17.781 22.609 19.4108 21.9082C20.9021 21.2658 21.9909 20.2465 22.6444 18.8796C23.3262 17.4531 23.7321 15.9073 23.8837 14.1556C24.1499 11.0753 23.9601 8.40227 23.3044 5.9846ZM17.1177 17.7073C16.7609 18.3092 16.2264 18.7255 15.598 18.9955C15.1387 19.1935 14.6696 19.1519 14.2168 18.9538C10.416 17.2956 7.43661 14.681 5.46636 10.9246C5.06053 10.1506 4.77798 9.30791 4.45397 8.49002C4.38742 8.32127 4.39287 8.12439 4.36342 7.94101C4.39178 6.61911 5.37472 5.87547 6.36748 5.65047C6.74713 5.56384 7.08314 5.70222 7.36461 5.9801C8.14354 6.74737 8.75993 7.63613 9.22358 8.6329C9.4265 9.07054 9.33486 9.45754 8.98903 9.78267C8.91811 9.85017 8.84284 9.91318 8.76538 9.9728C7.97663 10.5848 7.86099 11.0472 8.281 11.9686C8.99666 13.5357 10.1847 14.5876 11.7218 15.2402C12.1266 15.4123 12.5084 15.3268 12.8182 14.9881C12.8597 14.9431 12.9066 14.8993 12.9372 14.8475C13.5437 13.8046 14.4219 13.9081 15.2336 14.5033C15.7671 14.8936 16.2842 15.3054 16.8122 15.7037C17.613 16.3123 17.6064 16.8838 17.1177 17.7073ZM12.5575 6.91049C12.3535 6.91049 12.1484 6.92737 11.9477 6.96225C11.6073 7.02187 11.2866 6.78449 11.2298 6.43349C11.1731 6.0836 11.4022 5.75172 11.7426 5.69322C12.0099 5.64822 12.2848 5.6246 12.5575 5.6246C15.2576 5.6246 17.4548 7.89039 17.4548 10.6748C17.4548 10.9572 17.4319 11.2407 17.3871 11.5163C17.3358 11.8302 17.0718 12.053 16.7729 12.053C16.7391 12.053 16.7042 12.0507 16.6693 12.044C16.33 11.9843 16.1009 11.6536 16.1576 11.3037C16.1915 11.0989 16.2078 10.8874 16.2078 10.6759C16.2078 8.59915 14.5703 6.91049 12.5575 6.91049ZM15.2729 11.0888C15.2729 11.4432 14.9936 11.7312 14.6499 11.7312C14.3063 11.7312 14.027 11.4432 14.027 11.0888C14.027 10.0257 13.1881 9.16054 12.1571 9.16054C11.8135 9.16054 11.5342 8.87253 11.5342 8.51815C11.5342 8.16377 11.8135 7.87576 12.1571 7.87576C13.8743 7.87464 15.2729 9.31692 15.2729 11.0888ZM19.4686 11.873C19.4032 12.1722 19.1468 12.3736 18.861 12.3736C18.8152 12.3736 18.7683 12.368 18.7224 12.3578C18.3864 12.2791 18.1759 11.9348 18.2522 11.5895C18.3428 11.1788 18.3886 10.7547 18.3886 10.3294C18.3886 7.20412 15.9231 4.66045 12.8913 4.66045C12.4779 4.66045 12.0677 4.7077 11.6695 4.80108C11.3357 4.88096 10.9996 4.6627 10.9244 4.31619C10.848 3.96969 11.0585 3.62543 11.3946 3.5478C11.8833 3.43193 12.3873 3.37455 12.8935 3.37455C16.6115 3.37455 19.6367 6.49424 19.6367 10.3283C19.6367 10.8503 19.5799 11.3701 19.4686 11.873Z" fill="#975DD1"/>
<path d="M58 14C58 20.627 52.627 26 46 26C39.373 26 34 20.627 34 14C34 7.373 39.373 2 46 2C52.627 2 58 7.373 58 14Z" fill="url(#paint0_linear_139_1706)"/>
<path d="M40.7412 13.7286C44.1261 11.9398 48.5062 9.75894 49.1111 9.45703C50.697 8.66705 51.1837 8.8183 50.9411 10.5681C50.7667 11.8258 50.2641 15.9892 49.8631 18.5807C49.6253 20.1176 49.0917 20.2997 48.253 19.6348C47.8496 19.3149 45.8133 17.6971 45.3712 17.3172C44.9678 16.9711 44.4114 16.5546 45.1092 15.7344C45.3576 15.4424 46.9852 13.575 48.2534 12.1219C48.4195 11.9311 48.2108 11.6175 48.0191 11.7705C46.3096 13.1323 43.9397 15.0224 43.638 15.2684C43.1823 15.6401 42.7445 15.8106 41.9591 15.5395C41.3654 15.3347 40.7857 15.0904 40.5601 14.9973C39.6908 14.639 39.8971 14.1748 40.7412 13.7286Z" fill="white"/>
<defs>
<linearGradient id="paint0_linear_139_1706" x1="37.5148" y1="5.5148" x2="54.4852" y2="22.4852" gradientUnits="userSpaceOnUse">
<stop stop-color="#33BEF0"/>
<stop offset="1" stop-color="#0A85D9"/>
</linearGradient>
</defs>
</svg>
